<?xml version="1.0" encoding="UTF-8" standalone="no"?>
<svg
   version="1.1"
   x="0px"
   y="0px"
   viewBox="0 0 87.999947 59.999794"
   id="svg2"
   width="87.999947"
   height="59.999794"
   xmlns="http://www.w3.org/2000/svg"
   xmlns:svg="http://www.w3.org/2000/svg">
  <defs
     id="defs2" />
  <g
     transform="translate(-6.0000251,-972.36228)"
     id="g1"
     style="fill:#ffffff">
    <path
       style="color:#000000;text-indent:0;text-transform:none;direction:ltr;baseline-shift:baseline;fill:#ffffff;enable-background:accumulate"
       d="m 56.000025,972.3623 c -6.67149,-0.01 -10.61532,3.1413 -12.59375,7.9998 -9.97729,-0.6078 -15.96401,1.3695 -23.65625,8.90611 -3.99487,-1.2097 -8.86049,-1.5766 -11.4999999,1.7813 -2.00591,2.6263 -2.1810601,6.319 -2.25,9.28109 0.086,4.028 2.70414,6.8051 4.9687499,8.7809 2.63162,2.2556 5.76628,3.9463 8.3125,4.9999 2.19897,6.0513 7.64687,11.107 18.375,11.2186 2.0924,1.9993 5.08349,3.2443 7.5312,3.625 2.71313,0.3839 5.78673,-0.1645 9.71875,-1.5313 3.37125,2.1431 11.1357,4.9987 20.09375,4.9374 8.87569,0.032 18.536,-6.3988 19,-13.9686 -0.009,-7.5827 -1.70213,-13.2558 -5.625,-17.3745 -3.92279,-3.96719 -10.06806,-6.48979 -18.96875,-8.49989 0.49867,-3.3489 -0.47524,-7.8785 -1.90625,-9.4998 0.93981,-0.6464 1.30284,-1.76721 1.5,-2.65621 -0.001,-0.187 -0.0559,-0.3734 -0.15625,-0.5312 -3.03747,-5.3943 -8.36403,-7.3948 -12.8437,-7.4686 z m 0,1.9999 c 4.60856,0 8.08701,1.7024 10.90625,6.1874 -0.0636,0.4076 -0.28277,0.5429 -0.46875,0.8437 -2.11151,-2.0311 -5.13393,-4.0311 -8.4375,-4.0311 -3.99955,-0.05 -7.91266,2.4859 -8,5.99991 0,6.2221 1.92868,13.1897 4.15625,16.5309 2.84645,-1.5105 3.87777,-3.0938 3.59375,-5.1561 1.30374,-0.6926 1.46544,-1.9494 1.28125,-3.1561 -0.44414,-1.0364 -1.48685,-1.5967 -2.6875,-1.9063 0.80282,-1.2827 0.66145,-2.8775 0.0937,-3.7812 -1.06856,-1.3104 -2.78308,-1.2372 -4.375,-0.9374 -0.0317,-0.5345 -0.0625,-1.0751 -0.0625,-1.5938 0.61924,-2.71031 3.45554,-3.96591 6,-3.99991 6.58664,-0.01 10.3527,7.29901 9.40625,13.18691 l -3.84375,1.9063 c -0.50571,0.2456 -0.70858,0.9634 -0.40625,1.4374 1.71572,2.5736 1.75262,4.86989 0.25,7.40619 -1.00058,-0.053 -2.24563,-0.2143 -2.6875,-0.6563 -0.37177,-0.3842 -1.06573,-0.3842 -1.4375,0 -0.69473,0.7639 -1.36749,1.338 -2.28125,1.7188 -0.52356,10e-5 -0.9999,0.4764 -1,0.9999 0.1328,1.2939 -0.1232,2.3939 -0.7187,3.2812 -0.36817,0.3763 -0.36075,1.0537 0.0156,1.4219 0.37634,0.3682 1.05374,0.3607 1.42191,-0.016 1.1286,-1.225 1.21695,-2.6094 1.25,-4.0625 0.91336,-0.2131 1.51067,-0.7876 2.125,-1.375 1.39218,0.8102 3.07292,0.75 3.90625,0.75 0.33576,0 0.66538,-0.1843 0.84375,-0.4688 1.95521,-2.9327 2.03581,-6.10579 0.46875,-9.09349 l 2.96875,-1.5 c 9.16598,2.0052 15.06809,4.4959 18.65625,8.12489 3.60781,3.6488 5.37061,10.6206 5.0625,15.906 -0.35823,6.2005 -10.13172,11.9553 -17,12.0308 -7.39061,0.05 -14.24156,-2.1745 -17.75,-3.9061 1.53667,-0.944 3.46651,-2.333 4.71875,-3.4374 0.45314,1.317 1.14318,2.5032 2.21875,3.9374 0.31909,0.4254 0.99649,0.5222 1.42191,0.2031 0.42542,-0.3191 0.52218,-0.9965 0.20309,-1.4219 -1.43,-1.9067 -2.17224,-3.5629 -2.375,-4.9687 -0.33233,-5.3407 6.26296,-7.6249 9.78125,-8.4373 0.51182,-0.1181 0.8716,-0.6886 0.75765,-1.2013 -0.11395,-0.5128 -0.68148,-0.8772 -1.19515,-0.7674 -5.55599,1.5776 -11.99832,4.3998 -11.34375,10.4998 -4.21058,3.7953 -10.78737,6.4838 -15.9686,6.0935 -1.7727,-0.2511 -3.34477,-0.9401 -5.0625,-2.0938 6.61087,-1.8151 12.66239,-7.1623 16.3125,-10.8123 0.37351,-0.3599 0.29311,-0.9818 -0.0253,-1.3709 -0.57145,-0.4959 -0.86125,-0.2858 -1.4122,-0.035 -5.37524,4.8646 -11.07285,9.6335 -17.53125,10.7186 -10.44988,-0.074 -14.93514,-4.7115 -16.8125,-10.3436 -1.91484,-5.5551 -2.93745,-10.1465 -2.93745,-15.65499 0.006,-0.2641 -0.0975,-0.529 -0.28125,-0.7188 l -1.28125,-1.2812 c 8.4045,-9.1624 17.45739,-14.11821 27.49995,-13.0313 0.42661,0.026 0.85386,-0.2547 1,-0.65631 1.80015,-4.9884 6.20512,-7.2293 11.06234,-7.3123 z m -37.90625,16.46861 -3.8125,3.8123 c -0.36552,0.3697 -0.36552,1.0366 0,1.4063 l 1.71875,1.7187 v 1.3125 c -2.248,0.3728 -2.68194,2.62349 -2.03125,4.31199 -0.89048,2.6077 1.65325,4.3774 3.46875,5.5625 0.23054,0.8123 0.48829,1.6291 0.78125,2.4686 -1.96872,-0.9839 -4.12278,-2.2882 -5.9375,-3.8436 -2.5098699,-2.1515 -4.2812499,-4.6631 -4.2812499,-7.2187 0.0672,-2.88529 0.38369,-6.18179 1.84375,-8.09369 2.3912799,-2.4169 5.2409299,-2.2041 8.2499999,-1.4369 z m 29.8125,15.49969 c -0.38134,0.041 -0.72607,0.3223 -0.84375,0.6874 -0.83135,2.4941 -3.22128,3.1393 -4.625,2.4376 -0.47235,-0.311 -1.1982,-0.1132 -1.44755,0.3944 -0.24935,0.5075 0.0377,1.2029 0.57255,1.3867 2.59628,1.2981 6.20635,-0.057 7.375,-3.5624 0.23433,-0.6313 -0.36081,-1.4068 -1.03125,-1.3437 z m -15.625,2.3122 c -2.4714,2.4715 -2.28125,6.7187 -2.28125,9.7186 0.59051,2.6559 3.07953,3.9998 6,4 2.57666,-0.2038 4.67603,-1.7658 5,-4 -0.0824,-4.7262 -3.40567,-8.4962 -7.6875,-9.9686 -0.46473,-0.1512 -0.69597,0.053 -1.03125,0.25 z m -8.84375,3.8127 c -0.47236,-0.3107 -1.19796,-0.1129 -1.44724,0.3946 -0.24929,0.5074 0.0376,1.2026 0.57224,1.3866 2.33921,0.9444 4.40102,0.3022 6.15625,-1.1875 0.58358,-0.5623 0.0591,-1.7642 -0.75,-1.7187 -1.64169,0.9408 -2.85842,1.595 -4.53125,1.125 z"
       fill="#000000"
       fill-opacity="1"
       stroke="none"
       marker="none"
       visibility="visible"
       display="inline"
       overflow="visible"
       id="path1" />
  </g>
</svg>
